<svg xmlns:dc="http://purl.org/dc/elements/1.1/" xmlns:cc="http://creativecommons.org/ns#" xmlns:rdf="http://www.w3.org/1999/02/22-rdf-syntax-ns#" xmlns:svg="http://www.w3.org/2000/svg" xmlns="http://www.w3.org/2000/svg" xmlns:sodipodi="http://sodipodi.sourceforge.net/DTD/sodipodi-0.dtd" xmlns:inkscape="http://www.inkscape.org/namespaces/inkscape" version="1.1" x="0px" y="0px" viewBox="0 0 100 125"><g transform="translate(0,-952.36213)"><path style="" d="m 49.029662,959.61256 c -0.706319,-6.4e-4 -1.365644,0.23259 -1.864501,0.578 -0.358082,0.25111 -0.626821,0.55291 -0.801735,0.84841 -0.174913,0.29536 -0.257328,0.57928 -0.279676,0.82962 -0.02234,0.25034 0.02141,0.45978 0.102542,0.61531 0.08114,0.15553 0.193545,0.26063 0.33561,0.31698 0.284128,0.11192 0.614044,0.0489 0.941573,-0.018 0.327529,-0.0669 0.660856,-0.14138 0.950896,-0.15849 0.199645,-0.0154 0.409098,-0.027 0.615284,-0.0283 0.09918,-5.2e-4 0.188295,0 0.279675,0.0129 0.313597,0 0.712313,0.0695 1.100056,0.1491 0.193872,0.0399 0.380929,0.081 0.568673,0.10291 0.187744,0.0219 0.372755,0.0193 0.540705,-0.0463 0.16795,-0.0656 0.304133,-0.19502 0.382223,-0.40085 0.07809,-0.2057 0.09413,-0.48654 0.0093,-0.81098 -0.0848,-0.32444 -0.271156,-0.69133 -0.587317,-1.02555 -0.316163,-0.33421 -0.760519,-0.63486 -1.314473,-0.8111 -0.310877,-0.0952 -0.639082,-0.14884 -0.978864,-0.1491 z m -0.26103,4.99693 c -0.781775,-2.6e-4 -1.540283,0.10934 -2.246724,0.30758 -0.70644,0.19786 -1.352234,0.48769 -1.929758,0.82976 -0.830708,0.49502 -1.495165,1.0963 -1.985693,1.69669 -0.490529,0.60025 -0.809648,1.19832 -1.006831,1.71534 -0.197185,0.51702 -0.269938,0.95544 -0.261031,1.26779 0.0089,0.31234 0.091,0.49373 0.233064,0.55008 0.142064,0.0566 0.329093,-0.018 0.55935,-0.18654 0.230256,-0.16813 0.509746,-0.42671 0.848347,-0.72709 0.338602,-0.30039 0.744581,-0.64502 1.221249,-0.97886 0.476668,-0.33383 1.023115,-0.65184 1.64076,-0.90424 0.855838,-0.3539 1.873172,-0.58584 2.936589,-0.58738 0.511568,-6.5e-4 1.003687,0.0527 1.472956,0.14922 0.824498,0.16222 1.588918,0.48075 2.24673,0.84828 0.657796,0.36754 1.213063,0.78319 1.66872,1.16526 0.455671,0.3822 0.809301,0.73469 1.100062,0.96959 0.290749,0.23491 0.52191,0.35467 0.689855,0.28907 0.167958,-0.0656 0.257996,-0.31737 0.233064,-0.73649 -0.02496,-0.41925 -0.175457,-1.0114 -0.522051,-1.67804 -0.346593,-0.66676 -0.890114,-1.40479 -1.67806,-2.07902 -0.787933,-0.67409 -1.817477,-1.27267 -3.039132,-1.61281 -0.688765,-0.18807 -1.429306,-0.29807 -2.181466,-0.29819 z m 0.512737,6.41381 c -1.241331,0 -2.453699,0.17328 -3.579841,0.47547 -1.126142,0.30218 -2.165767,0.73494 -3.095071,1.25852 -1.337453,0.75656 -2.415305,1.68318 -3.244232,2.61032 -0.828927,0.92714 -1.414601,1.85389 -1.799243,2.65689 -0.384643,0.803 -0.574716,1.47722 -0.643254,1.95771 -0.06854,0.48048 -0.01158,0.76414 0.130515,0.82036 0.142066,0.0566 0.36352,-0.11063 0.671222,-0.44742 0.3077,-0.33641 0.704509,-0.84005 1.23057,-1.42641 0.526059,-0.58636 1.179949,-1.25968 1.995015,-1.9204 0.815068,-0.66059 1.793554,-1.30394 2.917944,-1.81787 0.779699,-0.3584 1.632212,-0.66226 2.545044,-0.86693 0.912833,-0.20481 1.880066,-0.31608 2.871331,-0.31698 0.953714,-9e-4 1.885025,0.10291 2.759462,0.29832 1.540391,0.33808 2.928938,0.97397 4.092576,1.70595 1.163638,0.73199 2.097697,1.56303 2.834044,2.312 0.736359,0.74896 1.276845,1.41946 1.678047,1.88309 0.401203,0.46376 0.671085,0.71822 0.83903,0.65261 0.167945,-0.0656 0.219274,-0.45205 0.08388,-1.10004 -0.135372,-0.64798 -0.463453,-1.558 -1.090735,-2.59166 -0.627282,-1.03366 -1.558923,-2.18695 -2.852684,-3.22562 -1.293762,-1.03855 -2.947444,-1.95462 -4.884993,-2.47049 -1.093932,-0.28765 -2.264342,-0.44742 -3.458648,-0.44742 z m 0.755124,7.68173 c -1.376314,-0.0206 -2.851748,0.16505 -4.334965,0.6153 -1.977623,0.60026 -3.979394,1.67572 -5.69605,3.3095 -1.212235,1.16719 -2.255728,2.56916 -3.067104,4.15778 -0.811375,1.58876 -1.394332,3.35864 -1.696696,5.21138 -0.273573,1.6706 -0.343124,3.39674 -0.22374,5.13665 0.119382,1.7399 0.431157,3.49756 0.894961,5.22066 0.591773,2.2088 1.418985,4.3716 2.377237,6.4884 0.446567,0.9866 0.911341,1.9502 1.389054,2.89 0.596566,1.1778 1.19808,2.3163 1.799243,3.4401 -0.445838,0.4634 -0.923389,0.9299 -1.426342,1.389 -1.444887,1.3191 -2.917114,2.3917 -4.213772,3.2256 -1.121918,0.7221 -2.110231,1.2781 -2.796752,1.7246 -0.686522,0.4467 -1.072158,0.7918 -1.006831,1.0442 0.06533,0.2523 0.584127,0.384 1.454311,0.3263 0.870184,-0.058 2.087406,-0.3169 3.477294,-0.8764 0.806634,-0.3253 1.67074,-0.746 2.535721,-1.2864 0.864982,-0.5404 1.734736,-1.1925 2.563689,-1.9485 0.306033,-0.2791 0.598238,-0.5671 0.876315,-0.8576 0.453547,0.8564 0.896132,1.705 1.314474,2.5451 1.147484,2.3355 2.152263,4.6461 2.843364,6.8893 0.691101,2.2431 1.067992,4.4218 1.072088,6.4978 0.009,1.7278 -0.214029,3.3501 -0.717833,4.7637 -0.287632,0.8053 -0.656768,1.5521 -1.090733,2.2094 -0.433965,0.6575 -0.93173,1.22 -1.472956,1.6875 -0.70213,0.6135 -1.483996,1.0689 -2.256046,1.3797 -0.772051,0.3108 -1.53923,0.4798 -2.246724,0.55 -0.802356,0.08 -1.529553,0.032 -2.162821,-0.066 -0.633268,-0.096 -1.173353,-0.2454 -1.60347,-0.3822 -0.430118,-0.1367 -0.757027,-0.2611 -0.988187,-0.3356 -0.231158,-0.075 -0.365812,-0.098 -0.400866,-0.046 -0.03506,0.051 0.0286,0.173 0.205094,0.3543 0.176502,0.1812 0.4688,0.4233 0.885638,0.6805 0.416838,0.2572 0.962809,0.5327 1.650083,0.7551 0.687275,0.2225 1.519846,0.3923 2.470465,0.4102 0.838163,0.015 1.760322,-0.086 2.722171,-0.3728 0.961848,-0.2865 1.961827,-0.7548 2.899299,-1.4544 0.713406,-0.5374 1.379964,-1.1987 1.967047,-1.9671 0.587085,-0.7684 1.097374,-1.6514 1.491601,-2.6103 0.689078,-1.6729 1.060156,-3.5632 1.118702,-5.5282 0.06351,-2.3542 -0.271858,-4.8081 -0.941574,-7.2809 -0.669715,-2.4728 -1.673375,-4.9587 -2.852686,-7.3928 -0.601962,-1.259 -1.253888,-2.5231 -1.911113,-3.7848 0.698943,-1.0619 1.209984,-2.1004 1.547535,-3.0019 0.348497,-0.9308 0.519699,-1.7172 0.55935,-2.284 0.03965,-0.5669 -0.04899,-0.9083 -0.242385,-0.9788 -0.193397,-0.071 -0.471221,0.1362 -0.829702,0.5407 -0.358482,0.4043 -0.80015,1.0038 -1.34244,1.7246 -0.316744,0.421 -0.673019,0.8836 -1.062766,1.3704 -0.413362,-0.7931 -0.827008,-1.5913 -1.230572,-2.3959 -0.457874,-0.9162 -0.907377,-1.8397 -1.333117,-2.7782 -0.913567,-2.0135 -1.689448,-4.0229 -2.237401,-6.0316 -0.424571,-1.5643 -0.724175,-3.13456 -0.857671,-4.67057 -0.133497,-1.53601 -0.101951,-3.03613 0.111869,-4.47478 0.236399,-1.58438 0.686888,-3.10431 1.323796,-4.4655 0.636908,-1.36131 1.463444,-2.56246 2.433173,-3.55186 1.344833,-1.39245 2.985319,-2.3749 4.633285,-2.97387 1.647965,-0.5991 3.306618,-0.81367 4.810412,-0.74588 1.644726,0.0695 3.115553,0.47045 4.344285,0.97885 1.228745,0.50841 2.216063,1.12333 2.983207,1.67804 0.767131,0.55484 1.320802,1.0554 1.706015,1.3891 0.139514,0.12092 0.247344,0.20467 0.344933,0.27967 -0.345924,0.15823 -0.670519,0.34567 -0.960213,0.54069 -0.794879,0.53066 -1.376968,1.15047 -1.799243,1.74339 -0.422287,0.59279 -0.684451,1.15908 -0.83903,1.63134 -0.154592,0.47238 -0.206821,0.85702 -0.205097,1.11869 0.0013,0.26166 0.05532,0.39699 0.139836,0.4195 0.08452,0.0232 0.203631,-0.0695 0.35426,-0.26102 0.15063,-0.19193 0.3336,-0.47907 0.596639,-0.82036 0.263039,-0.34129 0.604525,-0.7415 1.044115,-1.13734 0.43959,-0.39584 0.980255,-0.79232 1.631439,-1.09065 0.405268,-0.18332 0.853979,-0.33151 1.3238,-0.41951 0.469822,-0.0888 0.961937,-0.11706 1.444983,-0.0373 0.543573,0.0682 1.09682,0.27813 1.63144,0.60591 0.534632,0.32779 1.053454,0.77585 1.510244,1.29583 0.813468,0.93666 1.408447,2.21011 1.939092,3.64514 0.644983,1.83745 1.130049,3.81805 1.044114,5.78923 -0.0051,0.1235 -0.01801,0.2503 -0.02792,0.373 -0.08658,1.038 -0.32246,2.05086 -0.699194,2.95516 -0.376722,0.9043 -0.895968,1.7015 -1.538212,2.3213 -0.867769,0.8663 -1.96814,1.4496 -3.067095,1.7247 -0.621223,0.1567 -1.245726,0.2149 -1.855178,0.1957 -0.609464,-0.019 -1.201022,-0.1106 -1.743308,-0.2703 -0.67124,-0.1969 -1.283882,-0.4901 -1.817897,-0.8297 -0.534015,-0.3397 -0.989672,-0.7342 -1.370408,-1.128 -0.423702,-0.4374 -0.759335,-0.8806 -1.025474,-1.2958 -0.266139,-0.4153 -0.465177,-0.8007 -0.624606,-1.1187 -0.159429,-0.3182 -0.279351,-0.5733 -0.382227,-0.7459 -0.102916,-0.1725 -0.183293,-0.26086 -0.261032,-0.25156 -0.0777,0.013 -0.152212,0.11956 -0.195771,0.32616 -0.04361,0.2071 -0.06149,0.5083 -0.02792,0.9043 0.03358,0.3961 0.123627,0.8848 0.307653,1.4356 0.184051,0.551 0.46263,1.1688 0.885638,1.7994 0.380967,0.5669 0.879373,1.142 1.500917,1.6686 0.621544,0.5267 1.365519,1.0004 2.237405,1.3611 0.705022,0.291 1.48355,0.509 2.31198,0.606 0.82843,0.096 1.707919,0.077 2.60098,-0.084 1.578862,-0.2865 3.176121,-1.0256 4.493438,-2.2375 0.947785,-0.8923 1.712845,-1.982 2.265372,-3.1976 0.552527,-1.2155 0.8887,-2.5595 0.978866,-3.92476 0.01029,-0.1584 0.02264,-0.317 0.02792,-0.4754 0.08516,-2.52321 -0.501172,-4.87586 -1.3238,-6.91734 -0.622959,-1.61409 -1.490613,-3.1721 -2.666228,-4.41892 -0.671638,-0.71861 -1.470891,-1.29288 -2.311993,-1.69669 -0.841088,-0.40382 -1.731782,-0.63923 -2.610293,-0.68979 -0.784626,-0.027 -1.512148,0.0926 -2.162817,0.29832 -0.155878,0.0489 -0.3005,0.10035 -0.447489,0.15837 -0.04734,-0.12736 -0.124913,-0.28135 -0.242378,-0.48474 -0.265457,-0.45964 -0.725862,-1.10981 -1.444996,-1.83652 -0.719121,-0.72671 -1.706581,-1.53061 -3.011161,-2.23738 -1.304593,-0.70677 -2.923876,-1.31243 -4.829062,-1.5382 -0.435651,-0.0502 -0.883669,-0.0862 -1.34244,-0.0926 z m -2.936589,9.0056 c -0.114339,10e-4 -0.228601,0.0129 -0.344932,0.018 -0.161956,0.0154 -0.324104,0.0399 -0.484772,0.0746 -0.722073,0.15501 -1.369327,0.50158 -1.873823,0.94167 -0.72677,0.63705 -1.118468,1.4403 -1.249216,2.14412 -0.06835,0.37216 -0.06376,0.7087 -0.01864,0.9975 0.04512,0.28881 0.129736,0.52616 0.233062,0.70857 0.206651,0.36474 0.465159,0.49878 0.689866,0.45672 0.224706,-0.0425 0.402352,-0.24636 0.587317,-0.50341 0.184965,-0.25703 0.38928,-0.56874 0.643253,-0.84828 0.238918,-0.26514 0.529881,-0.52294 0.857671,-0.69918 0.226052,-0.1235 0.486932,-0.22179 0.755123,-0.27968 0.05968,-0.0129 0.118636,-0.0193 0.177127,-0.0283 0.335754,-0.0502 0.688364,-0.0309 1.00683,0.0373 0.244018,0.0463 0.489386,0.13508 0.717833,0.24236 0.228448,0.10678 0.439334,0.22925 0.633931,0.34503 0.194596,0.11578 0.375015,0.22487 0.540705,0.2982 0.165689,0.0733 0.320637,0.10934 0.466126,0.0746 0.145487,-0.0347 0.271639,-0.14434 0.354255,-0.33563 0.08261,-0.19117 0.121466,-0.46441 0.07457,-0.80171 -0.04689,-0.33731 -0.185953,-0.7334 -0.44748,-1.13735 -0.261526,-0.40394 -0.650242,-0.81573 -1.183957,-1.13734 -0.592597,-0.35287 -1.334533,-0.57646 -2.134854,-0.56861 z m 0.661897,3.63575 c -0.388912,0.027 -0.80646,0.14523 -1.211926,0.36354 -1.081238,0.58225 -1.648895,1.64307 -1.258537,2.36798 0.390358,0.72491 1.584996,0.84327 2.666237,0.26102 1.081238,-0.58224 1.639572,-1.64294 1.249214,-2.36798 -0.243973,-0.45308 -0.7968,-0.66908 -1.444988,-0.62456 z" fill="#000000" fill-rule="evenodd" stroke="none"/></g><!--<text x="0" y="115" fill="#000000" font-size="5px" font-weight="bold" font-family="'Helvetica Neue', Helvetica, Arial-Unicode, Arial, Sans-serif">Created by mantisshrimpdesign</text><text x="0" y="120" fill="#000000" font-size="5px" font-weight="bold" font-family="'Helvetica Neue', Helvetica, Arial-Unicode, Arial, Sans-serif">from the Noun Project</text>--></svg>