<svg xmlns="http://www.w3.org/2000/svg" version="1.1" viewBox="-5.0 -10.0 110.0 135.0">
 <path d="m50 47.621c0.003906 0.003906-0.019531 0.14844 0 0.14062 0.019531 0.003906-0.003906-0.13672 0-0.14062z"/>
 <path d="m49.844 50.41-0.011719 0.26562v0.015625c0.003907 0.09375 0.085938 0.16797 0.17969 0.16406 0.22266-0.007813 0.14844-0.30469 0.14844-0.44531-0.007812-0.19531-0.3125-0.19531-0.31641 0z"/>
 <path d="m49.723 53.332-0.007812 0.26562v0.019532c0.015625 0.375 0.58594 0.35937 0.57812-0.019532l-0.007813-0.26562c-0.015625-0.35156-0.55078-0.35547-0.5625 0z"/>
 <path d="m49.621 56.52c-0.007813 0.50781 0.76562 0.50781 0.75781 0l-0.007812-0.26562c-0.011719-0.47266-0.73438-0.47656-0.74609 0 0.003906 0-0.003906 0.26562-0.003906 0.26562z"/>
 <path d="m49.555 59.445c-0.007813 0.59766 0.90234 0.59766 0.89453 0l-0.003907-0.26562c-0.011718-0.56641-0.87109-0.57031-0.88672 0l-0.003906 0.26562z"/>
 <path d="m49.512 62.363c-0.003907 0.64844 0.98438 0.64844 0.98047 0l-0.003907-0.26562c-0.011719-0.625-0.96094-0.62891-0.97266 0l-0.003906 0.26562z"/>
 <path d="m49.488 65.281c0.007813 0.67969 1.0195 0.67969 1.0273 0v-0.26562c-0.007813-0.66797-1.0195-0.66797-1.0273 0v0.26562z"/>
 <path d="m50.004 67.414c-0.29297 0-0.52734 0.23438-0.52734 0.52734v0.26562c0 0.29297 0.23828 0.53125 0.52734 0.53125 0.29297 0 0.52734-0.23828 0.52734-0.53125v-0.26562c0-0.29297-0.23828-0.52734-0.52734-0.52734z"/>
 <path d="m50 70.348c-0.28516 0-0.51562 0.23438-0.51172 0.51953v0.26562c0 0.28125 0.23047 0.51172 0.51172 0.51172 0.28516 0 0.51562-0.22656 0.51562-0.51172v-0.26562c0.003906-0.28906-0.23047-0.52344-0.51562-0.51953z"/>
 <path d="m49.992 73.289c-0.26953 0.003907-0.48828 0.22656-0.48438 0.5l0.003907 0.26563c0.003906 0.26172 0.21484 0.47656 0.48047 0.48047 0.26953 0.003906 0.49219-0.21094 0.49609-0.48047l0.003907-0.26563c0.003906-0.27734-0.22266-0.50781-0.5-0.5z"/>
 <path d="m49.992 76.254c-0.24609 0.003906-0.44531 0.20703-0.44141 0.45703l0.003907 0.26562c0.003906 0.23828 0.19531 0.43359 0.4375 0.4375 0.41016-0.007812 0.48047-0.36719 0.45703-0.70312 0.003906-0.25391-0.20312-0.46094-0.45703-0.45703z"/>
 <path d="m49.992 79.242c-0.21094 0.003906-0.375 0.17969-0.37109 0.39062l0.007812 0.26563c0.003906 0.19922 0.16406 0.35937 0.36328 0.36328 0.20703 0.003906 0.37891-0.16016 0.38281-0.36328l0.007812-0.26563c0.003907-0.21484-0.17578-0.39453-0.39062-0.39062z"/>
 <path d="m49.992 82.258c-0.31641 0.019532-0.28906 0.33594-0.26953 0.56641 0.003906 0.14453 0.12109 0.26562 0.26953 0.26953 0.30859 0 0.30078-0.3125 0.29687-0.53906 0.007813-0.16406-0.12891-0.30469-0.29687-0.29688z"/>
 <path d="m49.992 85.301c-0.22266 0.007813-0.15234 0.30469-0.14844 0.44531 0.003906 0.082031 0.070312 0.14844 0.15234 0.15234 0.21094 0.015624 0.16406-0.28516 0.17969-0.41797 0.003907-0.10156-0.082031-0.18359-0.18359-0.17969z"/>
 <path d="m49.992 88.406 0.007812 0.13281c-0.003906 0 0.023438-0.17969-0.007812-0.13281z"/>
 <path d="m50.109 19.801-0.10938-0.050781c-3.6055 1.6211-4.2617 4.7656-4.3203 6.6875 1.7734 0.074219 3.3164 0.71094 4.3203 1.875 1.0039-1.1641 2.5469-1.8008 4.3164-1.875-0.058594-2.8555-1.5156-5.4648-4.207-6.6367zm3.6484 6.1523c-1.5195 0.15625-2.8086 0.70703-3.7578 1.6055-0.94922-0.89844-2.2422-1.4492-3.7617-1.6055 0.13281-1.5977 0.82422-4.207 3.7656-5.6172 2.2617 1.0352 3.5703 3.1797 3.7539 5.6172z"/>
 <path d="m50.137 22.023-0.14062-0.089844c-0.82812 0.5-2.0508 1.7422-1.2188 3.332 0.25 0.45312 0.70312 0.72656 1.2188 0.72656 0.51172 0 0.96875-0.26953 1.2188-0.72656 0.82031-1.5-0.34766-2.7773-1.0781-3.2422zm0.61328 2.9883c-0.29688 0.59375-1.207 0.59375-1.5078 0-0.65625-1.2031 0.35937-2.1367 0.75391-2.4414 0.39453 0.30078 1.4102 1.2383 0.75391 2.4414z"/>
 <path d="m85.043 43.227c-0.19531-0.35937-0.58594-0.55859-1.1523-0.59375-2.4062-0.14844-5.4883-1.6836-6.4688-2.207-0.22266-0.11719-0.46094-0.21875-0.70312-0.28516-2.6719-0.75391-4.957-0.56641-6.7031-0.03125 0.13281-0.18359 0.36719-0.32031 0.67969-0.49219 0.55469-0.30859 1.2422-0.69531 1.1875-1.6914-0.027343-0.46875-0.53516-0.81641-1.1289-1.2188-0.51562-0.35156-1.0977-0.75-1.1367-1.1289-0.027344-0.24609 0.40234-0.70312 0.74609-1.0664 1.3008-1.293 1.3984-2.0664-0.37109-2.918-1.3594-0.73828-1.4688-0.88281-0.5-2.1055 1.1758-1.4336 1.0898-2.1797-0.73828-2.8203-1.4414-0.5625-1.5039-0.71094-0.72656-2.0352 0.98828-1.5898 0.75-2.3086-1.1523-2.6602-0.54297-0.12891-1.1562-0.26953-1.3008-0.53125-0.14062-0.25781 0.070312-0.85156 0.25391-1.375 0.70703-1.7734 0.28906-2.4141-1.6406-2.3672-0.55469-0.011719-1.1797-0.023438-1.375-0.24219-0.19141-0.21875-0.13281-0.83594-0.082031-1.3828 0.25391-1.875-0.29688-2.4492-2.168-1.8633-1.4492 0.39453-1.5938 0.33984-1.8711-1.1367-0.30859-1.8555-0.99219-2.2891-2.6055-1.1562-0.47656 0.30078-1.0156 0.64062-1.3203 0.5625-0.26172-0.066407-0.55078-0.60156-0.80859-1.0703-0.82812-1.668-1.5859-1.9258-2.8398-0.41016-1.043 1.1797-1.25 1.168-2.2852 0-1.2422-1.5039-2.0117-1.2734-2.8398 0.41016-0.25391 0.46875-0.54297 1-0.80859 1.0703-0.30078 0.078125-0.84375-0.26172-1.3203-0.5625-1.6016-1.1211-2.3008-0.71875-2.6055 1.1562-0.10937 0.52734-0.23437 1.1289-0.47266 1.2773-0.25781 0.16016-0.86328 0-1.4023-0.14062-1.8477-0.57813-2.4297-0.03125-2.168 1.8633 0.050781 0.54688 0.10938 1.168-0.082032 1.3828-0.625 0.51172-2.7266-0.074219-3.1875 0.73828-0.32031 0.46484-0.066406 1.1797 0.17578 1.875 0.18359 0.52344 0.39062 1.1172 0.25391 1.3711-0.49219 0.63281-2.6719 0.5-2.9648 1.3789-0.4375 0.83594 1.125 2.3125 1.0039 3.1133-0.097656 0.28516-0.69141 0.52734-1.2188 0.73828-1.8047 0.63672-1.9375 1.3633-0.73828 2.8203 0.98828 1.2266 0.83203 1.3828-0.5 2.1055-1.7461 0.84375-1.6953 1.6094-0.37109 2.918 0.34375 0.36328 0.77344 0.81641 0.74609 1.0664-0.039062 0.37891-0.625 0.77734-1.1367 1.1289-0.58984 0.40625-1.1016 0.75391-1.125 1.2227-0.058593 0.99609 0.63281 1.3789 1.1875 1.6875 0.29297 0.16406 0.51953 0.29688 0.65625 0.46875-1.75-0.51953-4.0273-0.69141-6.6914 0.074218-0.20312 0.058594-0.40234 0.14063-0.58984 0.24219-0.92578 0.49219-4.0703 2.0781-6.5195 2.2305-0.57031 0.035156-0.95703 0.23438-1.1523 0.59375-0.5 0.91016 0.42187 2.5781 1.3984 4.3398 0.58984 1.0625 1.1992 2.1641 1.375 2.9414 0.57031 2.4688 3.3984 6.3398 4.0664 7.1094 0.74219 1.0352 1.375 3.8359 2.2227 4.9219 1.7383 2.1328 3.7891 2.1016 4.5273 5.707-1.9883 2.1641-3.5195 4.6484-4.875 7.2344l0.46875 0.23828c1.2695-2.4453 2.7383-4.7891 4.5625-6.8711l0.011719 0.050782 6.5859-2.8164c0.13672 2.5703 0.85937 5.2578 1.332 7.7734 0.375 1.9023 0.92578 3.8516 1.5 5.7031 0.43359 1.3008 0.84375 3.2656 1.5664 4.4336-0.6875-1.1797-1.0469-3.1602-1.4375-4.4688-0.51953-1.8594-1.0156-3.8125-1.3359-5.7188-0.40234-2.5586-1.082-5.3594-1.1094-7.9375l0.69531-0.29688c0.085937 3.1367 0.94922 6.1289 1.5312 9.1875 0.3125 1.5664 0.80859 3.1562 1.2656 4.6797 0.44531 1.3398 0.86328 3.3555 1.6016 4.5586-0.70312-1.2109-1.0664-3.25-1.4766-4.5938-0.41406-1.5352-0.86328-3.125-1.1328-4.6953-0.49609-3.0859-1.3242-6.2266-1.2695-9.3594l0.69922-0.30078c-0.050781 1.5508 0.1875 3.082 0.47656 4.5742 0.51562 2.4375 0.91406 4.8984 1.5781 7.3008 0.16406 0.59766 0.51563 1.7969 0.69531 2.3906 0.46094 1.375 0.88281 3.4492 1.6406 4.6875-0.71875-1.2461-1.0898-3.3398-1.5117-4.7227-0.16406-0.59766-0.48438-1.8008-0.63281-2.4023-0.59766-2.4102-0.92969-4.8789-1.3789-7.3203-0.26172-1.5742-0.46094-3.1641-0.33203-4.7305l0.68359-0.29297c-0.16016 3.3164 0.82422 6.4922 1.4023 9.7109 0.3125 1.6758 0.80859 3.3164 1.3047 4.9453 0.47266 1.4102 0.90234 3.543 1.6758 4.8125-0.73438-1.2812-1.1133-3.4336-1.5469-4.8516-0.45312-1.6406-0.90234-3.2734-1.1719-4.957-0.49219-3.2656-1.4453-6.5898-1.1211-9.8945l0.49219-0.21094c0.875 0.60156 1.6992 1.2109 1.9609 1.5039 0.80078 6.8164 1.7656 13.758 4.7969 20.008 0.67188 1.3984 1.2383 3.0391 2.625 3.8984 1.4609 0.92188 3.3594 0.49609 4.5938-0.58984 1.2461-0.9375 2.3516-2.0664 3.2422-3.3516 0.77344-1.2812 1.9336-2.2148 3.3555-2.6719 1.4336-0.5625 3.0312-0.34766 4.5-0.75781 3.8984-1.1797 3.5859-4.8086 2.6406-8.0352-1.2031-3.3633-2.1016-2.293-4.25-0.50391 0.44141-2.1055 1.207-5.0586 1.4531-7.1719 1.0039 0.33984 1.9297 0.90625 2.8281 1.4609 2.9375 1.8125 5.4648 3.5273 6.6289 6.2109l0.48438-0.21094c-1.1641-2.6797-3.5625-4.4102-6.3828-6.168l2.8008 1.1992c0.39453-1.8477 0.97656-3.4297 2.625-4.5391 1-0.69141 1.6992-1.3047 2.0703-1.8281 0.84375-1.0859 1.4805-3.8867 2.2227-4.9219 0.67188-0.76562 3.5-4.6406 4.0664-7.1094 0.37891-1.832 3.6211-5.7656 2.793-7.2852zm-55.531-4.0703c-0.58984-0.32812-0.95312-0.5625-0.91406-1.1953 0.011719-0.20703 0.50391-0.54297 0.89844-0.81641 0.63672-0.4375 1.2969-0.89062 1.3633-1.5078 0.050781-0.49219-0.40234-0.97266-0.88672-1.4844-0.41406-0.4375-0.88281-0.93359-0.82812-1.2656 0.33594-0.73828 2.3555-1.168 2.4805-2.0859 0.25391-0.84375-1.4922-2.1289-1.418-2.9141 0.074219-0.27344 0.66797-0.51172 1.1875-0.72266 1.707-0.61719 1.9609-1.2344 0.98828-2.7891-0.78906-1.3438-0.74609-1.5547 0.8125-1.8867 1.7852-0.33984 2.0898-0.91797 1.4258-2.5938-0.19141-0.54297-0.40625-1.1562-0.23828-1.3984 0.16797-0.24219 0.81641-0.25391 1.3906-0.26562 1.793 0.039062 2.2109-0.44141 1.9727-2.2031-0.054688-0.57812-0.11719-1.2305 0.10938-1.4219 0.21875-0.1875 0.87109-0.015625 1.3984 0.12109 1.6914 0.51172 2.2383 0.20703 2.5234-1.5391 0.30859-1.543 0.46094-1.6992 1.8086-0.81641 1.4414 0.97656 2.0898 0.91406 2.875-0.70312 0.28125-0.51953 0.60156-1.1094 0.91797-1.1484 0.78125 0.125 1.6992 1.9883 2.6016 1.9141 0.90234 0.078125 1.8203-1.793 2.6016-1.9141 0.75391 0.22266 1.2031 2.332 2.0586 2.4766 0.84766 0.29688 2.2188-1.2656 3.0039-1.1562 0.28516 0.12109 0.41797 0.77344 0.53906 1.3477 0.28125 1.7539 0.84766 2.0469 2.5234 1.5391 0.52344-0.13672 1.1797-0.30859 1.3984-0.12109 0.47266 0.61719-0.3125 2.6133 0.32422 3.207 0.51562 0.71094 2.582 0.14844 3.1484 0.6875 0.16797 0.24219-0.046875 0.85547-0.23828 1.3984-0.67188 1.6797-0.33984 2.2539 1.4258 2.5938 1.5312 0.33594 1.6211 0.51562 0.8125 1.8867-0.98828 1.5586-0.69531 2.1836 0.98828 2.7891 0.52344 0.21094 1.1133 0.44922 1.1875 0.72266 0.082032 0.29688-0.31641 0.82422-0.67188 1.2852-1.2109 1.4258-0.92969 2.0859 0.66406 2.8867 0.45703 0.25 1.0273 0.5625 1.0703 0.82812 0.019532 0.79688-1.8672 1.8906-1.7188 2.75 0.066406 0.62109 0.72656 1.0703 1.3633 1.5078 0.39453 0.26953 0.88672 0.60547 0.89844 0.81641 0.11719 1.25-1.832 1.1328-1.9727 2.3711-0.15625 0.058593-0.30859 0.12109-0.45703 0.1875 0.12109-3.3047-0.58203-5.8945-2.0469-8.7773-2.0938-10.094-6.6133-17.582-16.895-17.691-10.582-0.33984-15.516 9.5742-16.945 17.895-1.4023 2.8203-2.0586 5.3516-1.9414 8.5742-0.16797-0.074219-0.33984-0.14453-0.51953-0.21094-0.11328-0.61719-0.61719-0.90234-1.0703-1.1562zm32.078-1.9961c2.3984 2.2539 3.332 5.5508 3.5 6.2148 0 0-1.1562 4.3203-2.0117 6.9336 0.33203-3.7266 0.48047-9.8008-1.4883-13.148zm-24.711 13.148c-0.79688-2.4375-1.8359-6.3203-1.9844-6.8672 0.11328-0.47266 1.0039-3.8594 3.4258-6.1992-1.9141 3.3633-1.7656 9.3711-1.4414 13.066zm-5.2539-9.543c-0.47656-7.5977 5.2344-16.012 12.5-18.773-0.53125 1.0586-0.84375 2.1211-1.0234 3.0703-4.4414 2.5742-7.5469 7.0312-8.8516 11.848l0.015625 0.003906v0.035157c-0.46875 2.1758-0.25391 4.418-0.066406 5.6328-0.53125-0.51562-1.3906-1.2227-2.5742-1.8164zm34.359-10.609c-0.09375-0.15625-0.19141-0.30859-0.28906-0.46484l0.17188-0.03125c0.039062 0.16406 0.078124 0.32812 0.11719 0.49609zm-0.63672-0.99219c-0.93359-1.375-2-2.6562-3.1406-3.7344 0.67578-0.38672 1.2344-0.70313 1.8555-1.0547 0.64453 1.4297 1.1953 3.0078 1.6562 4.7266zm-2.0977-4.9922c-0.44141 0.25-0.94531 0.53906-1.4883 0.84766-0.97656-0.87109-2.0117-1.6953-3.3594-2.457 1.0742-1.2656 1.7695-2.082 2.6289-3.0898 1.0586 1.2383 1.9883 2.6992 2.7891 4.3711zm-3.1641-4.4766c-0.57813 0.67578-1.3477 1.5781-2.2031 2.5898-0.71094-0.36328-1.4961-0.69922-2.3867-0.98438-0.23828-0.39453-0.50781-0.78906-0.81641-1.1719 0.77734-2.0898 1.3984-3.7695 1.5977-4.3047 1.625 0.73438 3.1211 1.832 4.3672 3.2148zm-17.199 8.5039c-1.9805 0.18359-3.8008 1.2344-5.2695 2.7188 1.5781-2.2266 3.043-3.7227 5.375-5.1875-0.15625 1.1289-0.13281 2.0273-0.10547 2.4688zm0.30469 0.55469v-0.023437c0.078125-0.007813 4.75-0.52734 6.3242 2.9688-4.9766-2.6758-9.875-2.1953-13.082 1.6133 1.5781-2.4609 4.0156-4.418 6.7578-4.5586zm20.352 4.5586c-3.1953-3.8008-8.082-4.2891-13.047-1.6328 1.5273-3.4297 6-2.9883 6.2891-2.9531v0.027344c2.7383 0.14062 5.1758 2.0977 6.7578 4.5586zm-6.4297-5.1094c0.027344-0.44141 0.050781-1.3438-0.10156-2.4727 2.3203 1.457 3.8672 3.0312 5.4375 5.2852-1.4766-1.5312-3.3242-2.6211-5.3359-2.8125zm-0.52344-0.019531c-1.0781-0.058594-5.1172-0.03125-6.5898 3.3086-1.5117-3.1758-4.7773-3.3398-6.5898-3.3086-0.11328-1.3906-0.27344-8.0312 6.5898-10.793 6.8633 2.7617 6.7031 9.4023 6.5898 10.793zm-2.3438-8.5547c-0.96484-1.043-2.2422-1.9766-3.9375-2.6797 0.011718-1.1992 0.015625-2.0703 0.019531-2.375 1.9922 0.035156 3.793 0.37109 5.418 1.0195-0.17969 0.48438-0.76172 2.0469-1.5 4.0352zm-4.5156-2.6953c-1.707 0.69922-2.9961 1.6367-3.9648 2.6797-0.71875-2.0117-1.2773-3.5938-1.4453-4.0625 1.6289-0.63281 3.4336-0.95312 5.4297-0.97656 0 0.30469-0.007812 1.168-0.019531 2.3594zm-5.9414-1.1602c0.1875 0.53125 0.79297 2.2266 1.5469 4.3398-0.3125 0.38672-0.58984 0.78516-0.83203 1.1875-0.87891 0.28516-1.6641 0.61719-2.3672 0.97656-1.1836-1.4297-2.0547-2.4844-2.75-3.3242 1.2578-1.3867 2.7695-2.457 4.4023-3.1797zm-4.7969 3.6094c0.63672 0.76953 1.5078 1.8242 2.625 3.1719-1.3359 0.75-2.3711 1.5742-3.3359 2.4297-0.71484-0.41797-1.5508-0.91016-2.1016-1.2305 0.75391-1.5586 1.6758-3.0586 2.8125-4.3711zm-3.0586 4.8945c0.50781 0.30078 1.2266 0.71875 1.9023 1.1133-1.1328 1.0664-2.1914 2.3281-3.1211 3.6875-0.16406-0.03125-0.31641-0.058594-0.46094-0.085937 0.41406-1.5273 0.96094-3.1445 1.6797-4.7148zm-1.832 5.2773c0.085938 0.015624 0.17188 0.03125 0.26563 0.050781-0.15625 0.24219-0.30859 0.48438-0.45703 0.73047 0.058594-0.25781 0.125-0.51953 0.19141-0.78125zm6.1133 5.7188c-0.003906 0.003906-0.007813 0.003906-0.011719 0.007812-3.3398 1.6172-4.9141 5.168-5.5156 6.9922-0.16797-1.207-0.32812-3.2773 0.10156-5.2227 0 0 0-0.003906 0.003907-0.003906l0.023437 0.003906c0.011719-0.054687 0.03125-0.11328 0.042969-0.16797 2.2656-5.4297 7.7969-8.5703 14.926-4.4336l0.22266 0.75391 0.22656-0.77344c7.125-4.125 12.645-0.94922 14.891 4.4492 0.015625 0.054688 0.03125 0.11328 0.042969 0.16797l0.023437-0.003906c0.003906 0.015625 0.007813 0.023437 0.011719 0.027343l0.023437-0.007812c0.42188 1.9609 0.26563 3.9922 0.097657 5.207-2.0195-6.5469-8.3672-10.211-15.316-6.6406-3.2461-1.4922-6.1602-2.1094-9.793-0.35547zm25.422 1.2422c-1.2773-4.5352-4.4688-9.0195-8.7344-11.453-0.17969-0.94922-0.49609-2.0117-1.0273-3.0703 7.2617 2.7656 12.977 11.172 12.5 18.777-1.1836 0.59375-2.0391 1.3008-2.5703 1.8164 0.20312-1.293 0.43359-3.7383-0.16797-6.0703zm-36.41 31.602-0.21875-0.24609c-0.33594-1.5859-1.2383-3.0078-2.6055-3.9414-0.9375-0.64453-1.6094-1.2344-1.9414-1.6992-0.83203-1.0859-1.4648-3.9609-2.2539-4.9609-0.65234-0.74609-3.4023-4.5078-3.9492-6.8789-0.19531-0.84766-0.79687-1.9297-1.4297-3.0781-0.82422-1.4883-1.7578-3.1758-1.3984-3.832 0.10547-0.19141 0.33984-0.29688 0.72266-0.32031 2.5508-0.16016 5.6953-1.7344 6.6953-2.2695 0.20312-0.10938 0.41406-0.19531 0.63672-0.25781 6.8516-1.8633 10.41 2.3008 10.879 2.8984l0.027344 0.046875c0.21094 0.94141 2.9023 10.004 2.9023 10.004 0.17578 0.55469 1.3438 4.1445 2.6523 5.8906-0.76172 0.78125-1.6289 2.0469-1.6562 3.4727 0.37891 0.24219 0.75781 0.49219 1.1953 0.78516zm9.6055-5.4492c0.17188-1.6289 1.5273-2.9258 2.1758-3.4648 0.28906 1.8555 0.57031 3.7148 0.83594 5.5742-0.91016-0.73438-2.4961-1.7773-3.0117-2.1094zm25.699 10.785c0.42969-0.35547 0.82812-0.73047 1.3164-0.96484 0.10547-0.046875 0.18359-0.039062 0.29688 0.015625 1.3281 1.125 1.6914 4.4688 1.5312 6.1484-0.19922 1.5742-1.5781 2.6094-3.0469 2.9766-1.4062 0.24219-2.875 0.16016-4.25 0.67188-1.5117 0.47266-2.8594 1.543-3.6719 2.8984-1.1133 1.5234-3.1133 3.75-5.0039 4.1328-2.457 0.41797-3.5703-2.1367-4.3789-3.9961-4.0781-8.2812-4.2695-17.633-5.8398-26.57 0.17969-0.31641 0.35156-0.63281 0.51953-0.94922 0.16016 0.55469 0.31641 1.1094 0.41797 1.6797 0.027344-0.77344-0.027344-1.5508-0.082031-2.3242 0.87891-1.7266 2.0859-3.7734 1.2031-5.7266 0.25391 2.6211-1.4375 4.8711-2.5508 7.1016-0.11328 0.082031-0.36328 0.27344-0.67188 0.55469-1.1758-1.6055-2.2734-4.8789-2.5039-5.6016-0.078125-0.24609-0.11719-0.57422-0.14062-0.82812-0.39453-3.0078-1.5859-14.492 2.7734-16.922 3.5234-1.6992 6.3789-1.0312 9.5508 0.46094 3.1641-1.4844 6.0078-2.1523 9.5117-0.48047l-0.007813 0.011719c4.3711 2.4219 3.1758 13.922 2.7812 16.93-0.035156 0.32031-0.0625 0.52344-0.09375 0.71094-0.019531 0.12109-0.046875 0.23828-0.085937 0.35156-0.34766 1.0234-1.3672 3.8672-2.4336 5.3555-0.21094-0.26562-0.42188-0.42188-0.57422-0.51172-1.168-2.2344-2.8516-4.4766-2.6406-7.1289-0.94922 1.9688 0.35547 4.0469 1.1953 5.8125-0.050782 0.74219-0.10156 1.4922-0.078125 2.2344 0.097656-0.54297 0.24219-1.0742 0.39844-1.6016 0.15234 0.29688 0.30859 0.58984 0.47266 0.88281-1.4766 8.1172-1.7617 16.473-4.2383 24.387 0.88672-2.0703 1.4648-4.2578 1.9883-6.4414 0.48828-0.50781 1.2695-0.55078 1.9492-0.67188 2.3984-0.28906 4.5898-0.88672 6.3867-2.5977zm-3.7852 1.5273c0.66406-3.1992 1.6367-6.5195 1.8047-9.8086l0.69531 0.29688c-0.046875 3.0117-0.76172 6.0312-1.1953 9.0156-0.41797 0.21094-0.85156 0.37109-1.3047 0.49609zm1.2891-10.031c0.066406 1.6875-0.19922 3.3906-0.47656 5.0859-0.23047 1.4141-0.57031 3.5625-0.83203 4.9492-0.41406 0.11328-0.83984 0.20703-1.2617 0.28906 0.35547-1.4844 0.83594-3.7969 1.1602-5.3125 0.36719-1.7305 0.72656-3.5 0.69922-5.3125zm-1.2305-0.52344c0.14844 1.8164-0.13672 3.6602-0.4375 5.4883-0.25391 1.5391-0.625 3.8555-0.91406 5.3633-1.0312 0.24219-2.1367 0.25781-3.0977 0.76562 0.84375-3.4961 1.2734-7.0703 1.7891-10.621 0.24219-0.37891 0.64062-1.0312 1.0352-1.6914l0.69531 0.29688zm-2.4688-0.32422 0.72656-4.9023c0.32422 0.29297 0.76953 0.92578 0.86328 2.2383-0.1875 0.3125-0.96094 1.625-1.5898 2.6641zm5.6758 5.8008-0.57812 3.7031c-0.43359 0.32812-0.875 0.63281-1.3594 0.86719 0.59766-2.9297 1.4297-5.7891 1.6797-8.7891l0.6875 0.29297v0.007813l-0.0625 0.26172c0.019532 0.003906 0.035156 0.011718 0.054688 0.015625-0.054688 1.2148-0.23828 2.4297-0.42188 3.6406zm19.168-22.59c-0.63281 1.1484-1.2344 2.2305-1.4297 3.0781-0.54688 2.3711-3.2969 6.1328-3.9492 6.8789-0.78906 1.0039-1.418 3.8711-2.2539 4.9609-0.33203 0.46484-1.0039 1.0547-1.9414 1.6992-1.4727 0.98828-2.3516 2.5508-2.6836 4.2461l-10.84-4.6367-0.62891-0.26953c0.54688-0.91797 0.91016-1.5352 1.0117-1.707-0.035156-0.84766-0.24219-1.5586-0.48047-2 1.4062-1.832 2.7188-6.0586 2.7188-6.0586 0.035156-0.12109 2.0664-6.8359 2.6328-9.0312l0.28906-0.91016c0.37109-0.48438 3.9141-4.793 10.832-2.9453 0.26172 0.070312 0.51562 0.17578 0.75391 0.30078 1.0508 0.55859 4.1406 2.0898 6.6484 2.2461 1.793 0.085938 0.15234 2.5273-0.67969 4.1484z"/>
 <path d="m38.902 43.527c1.1797-0.71484 2.543 0.32031 3.5156 0.97656 0.13672-0.60156 0.28906-1.2109 0.40625-1.8164-1.4375-0.97656-3.8555-0.68359-4.2852 1.207 0.09375-0.125 0.23438-0.26562 0.36328-0.36719zm0.38281-0.50781c0.83594-0.65234 2.0547-0.49219 2.9492-0.066406-0.054687 0.23828-0.10547 0.47266-0.15625 0.71094-0.89062-0.5-2.1211-1.0391-3.0742-0.39062 0.09375-0.089844 0.18359-0.17578 0.28125-0.25391z"/>
 <path d="m39.984 47.406c0.95703-1.0742 2.0938-1.418 3.0234-0.09375-0.16016-1.0664-1.3008-1.7227-2.293-1.1602-0.46094 0.23438-0.78516 0.61719-1.043 0.98828l-0.1875 0.27344c-0.17578 0.26172-0.49219 0.26953-0.80859 0.20313 0.42578 0.39453 0.96875 0.23047 1.3086-0.21094z"/>
 <path d="m43.52 48.602c-0.42188-0.85547-1.3164-2.0234-2.3984-1.707-0.48828 0.21094-0.80469 0.59766-1.1289 0.98047-0.14844 0.17969-0.30078 0.375-0.53906 0.42969 0.85547-0.082032 1.4922-1.5742 2.418-0.91016-1.2422-0.24609-1.4062 1.875-0.18359 1.9219 0.64844 0.023438 1.0586-0.85938 0.74219-1.4375 0.36719 0.39062 0.59766 0.85938 0.78125 1.3633-0.98828 0.46094-1.9102 0.24609-2.7109-0.46484-0.30078-0.22266-0.65234-0.49609-1.0469-0.46875 0.38281 0.082031 0.62891 0.375 0.89453 0.64453 0.95703 1.1641 2.2422 1.2422 3.5273 0.55859-0.125-0.30469-0.21094-0.60156-0.35547-0.91016z"/>
 <path d="m57.496 44.133 0.085937 0.37109c1.0391-0.73828 2.8555-1.9727 3.8789-0.60938-0.42969-1.8906-2.8477-2.1836-4.2852-1.207 0.09375 0.48438 0.21094 0.96484 0.32031 1.4453zm1.1211-1.4727c0.83594-0.17578 1.7891-0.066406 2.3789 0.61328-0.95312-0.64844-2.1797-0.10547-3.0742 0.39062-0.050781-0.23828-0.10156-0.47656-0.15625-0.71094 0.25391-0.12891 0.55859-0.23047 0.85156-0.29297z"/>
 <path d="m57.961 46.504c0.82031-0.26172 1.4961 0.33203 2.0586 0.90234 0.33984 0.4375 0.88672 0.60156 1.3125 0.21094-0.31641 0.070312-0.63281 0.0625-0.80859-0.19922l-0.1875-0.27344c-0.25781-0.37109-0.58594-0.75781-1.043-0.98828-0.99219-0.5625-2.1367 0.097656-2.293 1.1602 0.27734-0.35938 0.60156-0.67578 0.96094-0.8125z"/>
 <path d="m51.188 40.84 1.5039-0.21875-1.4961-0.21484c0.027344-0.5-0.066406-1.0391 0.20703-1.4883-0.55078 0.45312-0.55469 1.2656-0.69922 1.9023-0.10547 0.44141-0.097656 1.0312-0.52734 1.2227l-0.17578-3.8438-0.17578 3.8438c-0.42969-0.19531-0.41797-0.77344-0.52344-1.2227-0.14844-0.63672-0.14453-1.4531-0.69922-1.9023 0.27344 0.44922 0.17578 0.99609 0.20313 1.4961l-1.5508 0.26953 1.5625 0.16406c0.003906 0.16797 0.011719 0.33203 0.03125 0.50391l-1.5938 0.26172 1.6758 0.16406c0.070312 0.40625 0.41797 0.83984 0.86719 0.89062l-0.10547 2.2969h0.625l-0.10547-2.2969c0.45312-0.050781 0.79687-0.49219 0.86719-0.89844l1.6172-0.21875-1.5352-0.20703c0.019532-0.16797 0.027344-0.33594 0.027344-0.50391z"/>
 <path d="m57.52 49.938c0.82812 0.14062 1.6172-0.39453 2.1367-0.98828 0.26562-0.26953 0.50781-0.56641 0.89453-0.64453-0.39453-0.027344-0.75 0.24609-1.0469 0.46875-0.80078 0.71094-1.7227 0.92969-2.7109 0.46484 0.18359-0.50391 0.41797-0.96875 0.78125-1.3633-0.31641 0.57812 0.09375 1.4609 0.74219 1.4375 1.2227-0.042969 1.0625-2.1641-0.18359-1.9219 0.92578-0.66406 1.5625 0.82422 2.418 0.91016-0.23828-0.054687-0.38672-0.25-0.53906-0.42969-0.32812-0.38281-0.64062-0.76953-1.1289-0.98047-0.53125-0.22656-1.1133 0.13672-1.5 0.47656-0.65234 0.54297-0.98047 1.3633-1.2539 2.1367 0.44141 0.22656 0.90234 0.39062 1.3906 0.43359z"/>
 <path d="m32.434 45.738c2.3906 1.2422 2.0078 2.793 2.5 5.043 0.23828 1.0156 0.63672 2.0117 1.2266 2.8828 0.75781 1.4297 1.4805 3.2109 0.94531 4.8125-1.457 2.9258-2.3945 4.1758-5.5898 5.2734 1.9805-0.49219 3.9883-1.5508 4.9805-3.4375 0.26953-0.48828 0.72656-1.1953 0.98438-1.6797 0.55859-1.418 0.11328-2.9414-0.41797-4.2812-0.55469-1.2305-1.3789-2.332-1.6172-3.6992-0.50781-2.4453-0.20703-4.0039-2.7852-5.3203-1.25-0.62109-2.4531-1.3281-3.8555-1.543-2.082-0.23828-4.1523 0.56641-5.8672 1.6836 1.7695-0.96094 3.8047-1.6562 5.8164-1.3438 1.3008 0.25 2.5117 1.0039 3.6797 1.6094z"/>
 <path d="m36.637 62.605c-1.9609 1.4062-4.1172 2.4844-6.4102 3.2617 3.2617-0.29297 6.3789-2.1289 8.3281-4.7383-0.64453 0.50391-1.2578 1.0195-1.918 1.4766z"/>
 <path d="m73.285 43.879c-1.3594-0.30078-2.8555-0.089844-4.082 0.55469-1.2578 0.59375-2.6055 1.1016-3.5391 2.2148-0.92187 1.1328-0.73437 2.6875-1.1055 4.0078-0.23438 1.3711-1.0586 2.4688-1.6172 3.6992-0.53125 1.3359-0.97656 2.8633-0.41797 4.2812 0.25391 0.48047 0.71484 1.1953 0.98437 1.6797 0.99219 1.8867 3 2.9414 4.9805 3.4375-3.1992-1.1016-4.1289-2.3477-5.5898-5.2734-0.53516-1.6016 0.1875-3.3828 0.94531-4.8125 0.58984-0.87109 0.98828-1.8672 1.2266-2.8828 0.48828-2.2461 0.11328-3.8086 2.5-5.043 1.168-0.60547 2.3789-1.3594 3.6758-1.6055 2.0156-0.3125 4.0508 0.38281 5.8164 1.3438-1.1367-0.76953-2.4219-1.3281-3.7773-1.6016z"/>
 <path d="m33.082 50.797c0.38672-0.64453 0.83203-1.2656 1.25-1.9219-0.98047 0.86719-2.0547 1.8516-2.3711 3.1797-0.23828 1.9766 2.957 1.6836 3.6719 3.7734-0.066406-0.79688-0.59375-1.5234-1.2461-1.9688-0.54297-0.43359-1.3945-0.6875-1.7734-1.2227-0.31641-0.55469 0.18359-1.3047 0.46875-1.8398z"/>
 <path d="m65.348 55.09c0.49609-1.1836 1.6484-1.7188 2.5156-2.7539 0.90625-1 0.71484-2.3047-0.070312-3.2812-0.48047-0.76563-0.21875-1.8477 0.54297-2.3633-1.0469 0.375-1.4531 1.8516-0.8125 2.7617 0.51953 0.83984 0.59766 1.7695-0.10156 2.5156-1.4336 1.5195-3.5742 2.918-1.8984 5.2734-0.27734-0.70313-0.44531-1.4492-0.17578-2.1523z"/>
 <path d="m65.387 63.898c-1.4102-0.78516-2.6797-1.75-3.9375-2.7695 1.9492 2.6133 5.0664 4.4492 8.3281 4.7383-1.5312-0.51953-2.9961-1.168-4.3906-1.9688z"/>
<!-- <text x="0.0" y="117.5" font-size="5.0" font-weight="bold" font-family="Arbeit Regular, Helvetica, Arial-Unicode, Arial, Sans-serif" fill="#000000">Created by Mayur Freelancer</text><text x="0.0" y="122.5" font-size="5.0" font-weight="bold" font-family="Arbeit Regular, Helvetica, Arial-Unicode, Arial, Sans-serif" fill="#000000">from Noun Project</text> --></svg>