<svg xmlns="http://www.w3.org/2000/svg" xmlns:xlink="http://www.w3.org/1999/xlink" version="1.1" x="0px" y="0px" viewBox="0 0 496 620" style="enable-background:new 0 0 496 496;" xml:space="preserve"><path d="M453.713,212.452l-9.963-5.365c-35.148-18.925-63.164-47.803-81.017-83.509C359.163,116.437,351.985,112,344,112  s-15.163,4.437-18.733,11.578c-3.234,6.469-6.807,12.71-10.691,18.712c-6.868-17.693-19.892-32.699-36.863-41.838l-9.963-5.365  c-35.148-18.925-63.163-47.803-81.017-83.509C183.163,4.437,175.985,0,168,0s-15.163,4.437-18.733,11.578  c-17.854,35.707-45.869,64.584-81.018,83.509l-9.963,5.365C32.203,114.497,16,141.625,16,171.249  c0,30.653,17.032,58.211,44.449,71.919l6.193,3.096c7.748,10.74,18.8,18.68,31.259,22.718  c-13.321,13.459-28.649,24.949-45.651,34.104l-9.963,5.365C16.203,322.497,0,349.625,0,379.249  c0,30.653,17.032,58.212,44.448,71.919l6.15,3.075C62.218,470.411,80.837,480,100.844,480h0.734l2.016,1.344  C117.975,490.932,134.714,496,152,496s34.025-5.068,48.407-14.656l2.015-1.344h0.733c20.007,0,38.626-9.589,50.246-25.757  l6.149-3.075c24.192-12.095,40.289-34.976,43.744-61.25C315.811,396.53,329.717,400,344,400c17.286,0,34.025-5.068,48.407-14.656  l2.015-1.344h0.733c20.007,0,38.626-9.589,50.246-25.757l6.149-3.075C478.968,341.461,496,313.902,496,283.249  C496,253.625,479.797,226.497,453.713,212.452z M80,237.469v-20.033c0-19.425,7.564-37.687,21.299-51.422  c11.762-11.762,19.959-26.544,23.706-42.75l5.887-25.462l-15.589-3.604l-5.887,25.462c-3.071,13.283-9.79,25.4-19.431,35.041  C73.229,171.458,64,193.738,64,217.436v9.47c-19.838-11.513-32-32.478-32-55.657c0-23.729,12.979-45.459,33.873-56.709l9.963-5.365  c38.066-20.497,68.407-51.771,87.743-90.442C164.42,17.047,166.115,16,168,16s3.579,1.047,4.422,2.733  c19.335,38.671,49.676,69.945,87.742,90.442l9.963,5.365c16.869,9.083,28.868,25.403,32.613,44.093  c-10.06,12.456-21.635,23.589-34.521,33.189c-4.189-13.974-11.727-26.642-22.205-37.12c-9.641-9.641-16.36-21.758-19.431-35.041  l-5.887-25.462l-15.589,3.604l5.887,25.462c3.747,16.206,11.944,30.988,23.706,42.75c9.8,9.801,16.47,21.935,19.491,35.335  c-3.247,2.002-6.561,3.917-9.943,5.738l-9.963,5.365c-3.995,2.151-7.76,4.625-11.282,7.37c-2.051-20.372-7.296-40.175-15.694-59.071  C197.151,137.893,192,113.619,192,88.604V80h-16v8.604c0,27.268,5.615,53.728,16.689,78.645  c9.586,21.569,14.702,44.426,15.248,67.976c-5.129,6.887-9.15,14.581-11.87,22.801c-9.867-11.657-18.376-24.531-25.335-38.448  C167.163,212.437,159.985,208,152,208s-15.163,4.437-18.733,11.578c-1.57,3.139-3.222,6.222-4.947,9.254  c1.248-21.286,6.268-41.957,14.99-61.582C154.385,142.332,160,115.872,160,88.604V80h-16v8.604c0,25.015-5.151,49.288-15.311,72.146  C117.615,185.668,112,212.128,112,239.396v13.661c-0.642,0.812-1.292,1.618-1.946,2.42C98.128,253.673,87.219,247.169,80,237.469z   M256,434.906v-9.47c0-23.698-9.229-45.979-25.986-62.735c-9.641-9.64-16.359-21.757-19.431-35.04l-5.887-25.462l-15.589,3.604  l5.887,25.462c3.747,16.207,11.944,30.989,23.706,42.751C232.436,387.749,240,406.011,240,425.436v20.036  c-7.676,10.345-19.272,16.919-32,18.261v-16.337c0-27.269-5.615-53.728-16.689-78.645C181.151,345.893,176,321.619,176,296.604V288  h-16v8.604c0,27.269,5.615,53.728,16.689,78.645C186.849,398.107,192,422.381,192,447.396v20.323l-0.468,0.313  C179.787,475.861,166.117,480,152,480s-27.787-4.139-39.531-11.969L112,467.719v-20.323c0-25.015,5.151-49.288,15.311-72.146  C138.385,350.332,144,323.873,144,296.604V288h-16v8.604c0,25.015-5.151,49.288-15.311,72.146  C101.615,393.668,96,420.127,96,447.396v16.337c-12.728-1.342-24.324-7.916-32-18.261v-20.036c0-19.425,7.564-37.687,21.299-51.421  c11.762-11.762,19.959-26.544,23.706-42.751l5.887-25.462l-15.589-3.604l-5.887,25.462c-3.071,13.283-9.79,25.4-19.431,35.04  C57.229,379.457,48,401.737,48,425.436v9.47c-19.838-11.513-32-32.477-32-55.657c0-23.729,12.979-45.459,33.873-56.709l9.963-5.365  c38.066-20.497,68.407-51.771,87.743-90.442C148.42,225.047,150.115,224,152,224s3.58,1.047,4.422,2.733  c19.335,38.67,49.676,69.945,87.742,90.442l9.963,5.365C275.021,333.79,288,355.52,288,379.249  C288,402.428,275.838,423.393,256,434.906z M448,338.906v-9.47c0-23.698-9.229-45.979-25.986-62.735  c-9.641-9.64-16.359-21.757-19.431-35.041l-5.887-25.462l-15.589,3.604l5.887,25.462c3.747,16.207,11.944,30.989,23.706,42.75  C424.436,291.749,432,310.011,432,329.436v20.036c-7.676,10.345-19.272,16.919-32,18.261v-16.337  c0-27.269-5.615-53.728-16.689-78.645C373.151,249.893,368,225.62,368,200.604V192h-16v8.604c0,27.268,5.615,53.728,16.689,78.645  C378.849,302.107,384,326.381,384,351.396v20.323l-0.468,0.313C371.787,379.861,358.117,384,344,384s-27.787-4.139-39.531-11.969  L304,371.719v-20.323c0-25.015,5.151-49.288,15.311-72.146C330.385,254.332,336,227.873,336,200.604V192h-16v8.604  c0,25.015-5.151,49.288-15.311,72.146c-8.481,19.081-13.747,39.069-15.755,59.63c-7.008-9.768-16.234-18.012-27.221-23.929  l-2.236-1.204c3.523-11.002,9.607-21.019,17.822-29.233c11.762-11.762,19.959-26.544,23.706-42.75l5.887-25.462l-15.589-3.604  l-5.887,25.462c-3.071,13.284-9.79,25.401-19.431,35.041c-9.285,9.285-16.337,20.457-20.743,32.721  c-13.229-7.787-25.36-17.036-36.229-27.555c3.453-19.237,15.528-35.995,32.859-45.327l9.962-5.365  c38.066-20.497,68.407-51.771,87.743-90.442C340.42,129.047,342.115,128,344,128s3.58,1.047,4.422,2.733  c19.335,38.671,49.676,69.945,87.742,90.442l9.963,5.365C467.021,237.79,480,259.52,480,283.249  C480,306.428,467.838,327.393,448,338.906z"/><text x="0" y="511" fill="#000000" font-size="5px" font-weight="bold" font-family="'Helvetica Neue', Helvetica, Arial-Unicode, Arial, Sans-serif">Created by Eucalyp</text><text x="0" y="516" fill="#000000" font-size="5px" font-weight="bold" font-family="'Helvetica Neue', Helvetica, Arial-Unicode, Arial, Sans-serif">from the Noun Project</text></svg>