<svg xmlns="http://www.w3.org/2000/svg" version="1.1" viewBox="-5.0 -10.0 110.0 135.0" fill="black">
 <path d="m90.672 33.328c-1.2305-1.0195-2.6602-0.60938-3.7305 0.070313-4.7109 2.3711-9.8906 0.23047-15.379-2.0312-2.9609-1.2188-6.0117-2.4805-8.9297-2.9102-10.559-1.5703-17.648 2-19.059 2.7891-3.3008 0.03125-6.4219 0.85938-9.3086 2.5-5.3398 3.0117-7.7617 8.6797-8.4414 10.59-2.8086 0.39062-7.1719 2.3516-7.6289 7.6914-1.1016 0.60938-3.4688 2.1406-4.1914 4.2617-0.050781 0.14844-0.070312 0.28906-0.10156 0.44141-0.39844 0.10156-1.9219 0.55078-2.6484 1.9609-0.16016 0.30078-0.25 0.62891-0.30078 0.96094-0.039063 0.011718-0.078125 0-0.10938 0.019531-0.21094 0.089844-2.0195 0.89844-2.6289 2.4688-0.28906 0.76172-0.25 1.5703 0.12109 2.3516 0.92969 1.9805 2.2812 2.4492 3.8086 2.4492 0.69922 0 1.4414-0.10156 2.1797-0.19922 0.089843-0.011719 0.17188-0.050782 0.25-0.078126 1.0586 0.5 2.5586 0.76953 4.9102 0.92969h0.070313c0.078124 0 0.14844-0.03125 0.23047-0.039062 0.87109 0.64844 1.8711 1.1602 2.9609 1.2617 2.3594 0.23047 5.0391-0.75 6.0117-1.1484 2.7109 2.0703 5.5586 2.6289 7.8711 2.6289 0.62109 0 1.2109-0.039063 1.7383-0.10938 2.6914-0.32812 5-1.3281 6.2695-2.2305 0.94922 0.96094 2.0898 1.7812 3.3086 2.3203 2.4883 1.1016 5.2812 1.6602 8.3008 1.6602h0.32812c15.57-0.21094 20.75-11.988 23.539-18.32 0.78125-1.7812 1.5195-3.4609 2.0703-3.8516 3.5312-2.5586 7.6992-8.6797 8.7305-10.5 0.66016-1.1719 2.2188-3.8984-0.23047-5.9219zm-28.344-2.8867c2.6797 0.39844 5.4883 1.5586 8.4688 2.7891 3.2891 1.3594 6.6406 2.7305 9.9609 3.1094-1.4297 0.32031-3.1914 0.58984-5.3594 0.71094-8.0898 0.44141-16.82-1.7109-22.289-3.8711-1.8203-0.71875-3.5898-1.2305-5.3203-1.5508 3.1094-1.0586 8.1719-2.1289 14.539-1.1797zm-49.328 29.168c0.21094-0.42188 0.66016-0.67969 1.0117-0.82031 0.050781 0.14844 0.10156 0.28906 0.17188 0.44141l0.87109 1.7383c0.82031 1.6484 0.92969 1.8594 1.4102 2.7305 0.039062 0.078125 0.46094 0.82031 1.1719 1.7109-2.9102-0.35938-3.2305-1.0898-4.2188-3.4102l-0.25-0.57812c-0.32812-0.75-0.37891-1.3594-0.14844-1.8008zm-2.8789 4.0312c-0.14062-0.28906-0.16016-0.53125-0.058594-0.78125 0.17188-0.46094 0.69141-0.85938 1.1016-1.1094 0.050782 0.16016 0.089844 0.30859 0.16016 0.46875l0.25 0.57031c0.35938 0.85156 0.67969 1.5508 1.0508 2.1289-1.3789 0.10156-1.9609-0.12891-2.5-1.2812zm12.801 3.1797c-2.1094-0.21094-4.1094-3.0195-4.7109-4.0898-0.46094-0.82812-0.55078-1.0117-1.3711-2.6484l-0.87109-1.75c-0.23047-0.46094-0.26172-0.91016-0.10156-1.3984 0.39062-1.1406 1.75-2.2109 2.7812-2.8594 1.0195 2.2891 3.7695 7.7891 8.3516 12.09-1.0898 0.37109-2.6992 0.78906-4.0898 0.64844zm15.117 1.3906c-2.1914 0.25-5.4297 0.039062-8.4102-2.3906-5.7695-4.7188-8.9609-12.078-9.4805-13.34 0.26953-5.1602 4.9883-6.0508 6.1797-6.1914 1.0312 0.58984 5.2617 3.3008 8.6289 9.4609 3.5195 6.4219 6.3594 9.1719 8.1719 10.801-0.98828 0.58984-2.8281 1.3984-5.0898 1.6602zm51.121-29.941c-1.1289 1.9805-5.0781 7.6211-8.1719 9.8711-0.98047 0.71094-1.7109 2.3711-2.7188 4.6719-2.7891 6.3398-7.4609 16.941-21.73 17.129-2.8984 0.039063-5.4805-0.46094-7.7891-1.4883-1.5391-0.67969-2.5586-1.6914-3.0391-2.2383-0.058594-0.070313-0.12891-0.10938-0.19922-0.16016-0.039063-0.070313-0.078125-0.14063-0.14844-0.19922-0.17188-0.16016-0.35156-0.32031-0.55078-0.5-1.6914-1.5117-4.5117-4.0391-8.0898-10.57-3.2891-6-7.2891-8.9414-8.9492-9.9688 0.71094-1.8516 2.9414-6.7695 7.4688-9.3203 5-2.8203 10.77-2.9688 17.141-0.46094 5.6602 2.2383 14.711 4.4688 23.129 4 8.5117-0.46094 11.531-3.1094 11.699-3.2812 0.011718-0.019531 1.4805-1.4688 2.1797-0.87891 0.76953 0.62891 0.94141 1.3281-0.23047 3.3906z"/>
<!-- <text x="0.0" y="117.5" font-size="5.0" font-weight="bold" font-family="Arbeit Regular, Helvetica, Arial-Unicode, Arial, Sans-serif" fill="#000000">Created by eeyea</text><text x="0.0" y="122.5" font-size="5.0" font-weight="bold" font-family="Arbeit Regular, Helvetica, Arial-Unicode, Arial, Sans-serif" fill="#000000">from Noun Project</text> --></svg>