<svg xmlns="http://www.w3.org/2000/svg" xmlns:xlink="http://www.w3.org/1999/xlink" version="1.1" x="0px" y="0px" viewBox="0 0 100 125" style="enable-background:new 0 0 100 100;" xml:space="preserve"><path d="M65,44.8c0.7-2.7,1-5.6,1-8.4c0-8.5-7.4-22.6-11.8-30.3c-0.8-1.4-2.7-1.9-4.1-1.1c-0.8,0.5-1.3,1.3-1.5,2.2  c-1.1,8.1-4.4,15.8-9.4,22.2c-3.4,4.3-4.4,10-2.7,15.2C21.7,46,5,50.3,5,58c0,20.4,20.2,37,45,37s45-16.6,45-37  C95,51.8,83.3,46.7,65,44.8z M93,58c0,4.6-10.7,9.1-26.1,11c-1.7,0.2-4.1-1.2-6.5-2.9c1.3,0.6,2.8,0.9,4.2,0.9c0.2,0,0.4,0,0.6,0  c7.5-0.7,24.8-2.9,24.8-8.7c0-5-13.6-7.8-26.9-8.8c0.5-0.9,0.9-1.8,1.3-2.8C81,48.4,93,53.1,93,58z M89.2,72.3  c-0.8,0.2-1.6,0.4-2.5,0.6c-1.6,0.3-3.4,0.8-5.1,1.3c-1.6,0.7-3,1.6-4.2,2.9c-1.7,1.5-3.4,3-5.5,3.4c-1.4,0.2-3.1-0.5-4.9-1.3  c-2-0.8-4.1-1.7-6.3-1.6c-1.9,0.1-3.7,1.2-5.5,2.2S51.7,82,50,82s-3.5-1.1-5.3-2.1s-3.6-2.1-5.5-2.2c-2.2-0.2-4.3,0.7-6.3,1.6  c-1.8,0.8-3.5,1.5-4.9,1.3c-2.1-0.3-3.8-1.9-5.5-3.4c-1.2-1.2-2.6-2.2-4.1-2.9c-1.7-0.6-3.5-1-5.1-1.3c-0.9-0.2-1.7-0.4-2.5-0.6  c-1.7-3-2.8-6.3-3.4-9.6c4.7,4.3,15.3,7,25.5,8.3c3.5,0.4,7.9-3.2,11.7-6.3c2-1.7,4.5-3.7,5.4-3.7s3.4,2,5.4,3.7  c3.6,3,7.8,6.3,11.1,6.3c0.2,0,0.4,0,0.6,0c10.2-1.3,20.9-4,25.5-8.3C92,66.1,90.9,69.3,89.2,72.3z M41.8,53.2  c-14,0.8-24.7,3.3-28.4,6.8c-1-0.6-1.4-1.2-1.4-1.7c0-2.2,8.9-6,28-7C40.6,52,41.2,52.6,41.8,53.2z M44.3,55.1  c1.8,1.2,3.9,1.8,6.1,1.9c2.5,0,5-0.6,7.2-1.8c12.8,0.7,23.4,3,27.1,5.9C81.2,62.5,75,64.1,65,65c-2.4,0.2-6.2-1.8-9.2-3.3  c-1-0.5-2-1-2.8-1.4c-0.8-0.7-1.9-1.1-2.9-1.2c-1.1,0.1-2.1,0.6-2.9,1.2c-0.9,0.4-1.8,0.9-2.8,1.4c-3,1.6-6.8,3.5-9.2,3.3  c-10-0.9-16.2-2.5-19.6-4C18.8,58.4,28.6,55.7,44.3,55.1z M61.8,51.4c18,1.2,26.2,4.8,26.2,6.9c0,0.5-0.5,1.1-1.5,1.7  c-3.5-3.3-13.5-5.8-26.5-6.7C60.7,52.7,61.3,52.1,61.8,51.4z M40.8,30.6c5.3-6.7,8.7-14.7,9.8-23.2C50.7,7,51,6.7,51.4,6.6h0.2  c0.4,0,0.7,0.2,0.8,0.5C56.8,14.6,64,28.3,64,36.4C64,48,58.9,55,50.4,55c-4.1,0-8.5-3.3-10.9-8.3C36.8,41.1,37.3,35.1,40.8,30.6z   M37.2,46.6c0.1,0.3,0.3,0.7,0.4,1c0.3,0.6,0.7,1.2,1,1.8C25,50.2,10,53,10,58.3c0,5.8,17.4,8,24.8,8.7c0.2,0,0.4,0,0.6,0  c1.4-0.1,2.9-0.4,4.2-0.9c-2.4,1.7-4.8,3.1-6.5,2.9C17.7,67.1,7,62.6,7,58C7,53.6,17.4,48.3,37.2,46.6z M50,93  c-16.3,0-30.4-7.4-37.8-18.3c0.2,0.1,3.9,0.9,5.5,1.4c1.3,0.6,2.4,1.4,3.4,2.4c1.8,1.6,3.8,3.4,6.5,3.9c2,0.3,4-0.6,6-1.4  c1.8-0.8,3.7-1.5,5.4-1.4c1.4,0.1,3,1,4.6,2c2,1.2,4,2.4,6.3,2.4s4.3-1.2,6.3-2.4c1.6-1,3.2-1.9,4.6-2c1.9,0.1,3.7,0.6,5.4,1.4  c2,0.8,4.1,1.7,6,1.4c2.7-0.4,4.7-2.2,6.5-3.9c1-1,2.1-1.8,3.4-2.4c1.7-0.5,5.3-1.3,5.5-1.4C80.4,85.6,66.3,93,50,93z M50,74  c-1.7,0-3,1.3-3,3s1.3,3,3,3s3-1.3,3-3S51.7,74,50,74z M50,78c-0.6,0-1-0.4-1-1s0.4-1,1-1s1,0.4,1,1S50.6,78,50,78z M39,81  c-1.7,0-3,1.3-3,3s1.3,3,3,3s3-1.3,3-3S40.7,81,39,81z M39,85c-0.6,0-1-0.4-1-1s0.4-1,1-1s1,0.4,1,1S39.6,85,39,85z M28,73  c-1.7,0-3,1.3-3,3s1.3,3,3,3s3-1.3,3-3S29.7,73,28,73z M28,77c-0.6,0-1-0.4-1-1s0.4-1,1-1s1,0.4,1,1S28.6,77,28,77z M73,73  c-1.7,0-3,1.3-3,3s1.3,3,3,3s3-1.3,3-3S74.7,73,73,73z M73,77c-0.6,0-1-0.4-1-1s0.4-1,1-1s1,0.4,1,1S73.6,77,73,77z M61,81  c-1.7,0-3,1.3-3,3s1.3,3,3,3s3-1.3,3-3S62.7,81,61,81z M61,85c-0.6,0-1-0.4-1-1s0.4-1,1-1s1,0.4,1,1S61.6,85,61,85z"/><text x="0" y="115" fill="#000000" font-size="5px" font-weight="bold" font-family="'Helvetica Neue', Helvetica, Arial-Unicode, Arial, Sans-serif">Created by Desti Silvana Ekasari</text><text x="0" y="120" fill="#000000" font-size="5px" font-weight="bold" font-family="'Helvetica Neue', Helvetica, Arial-Unicode, Arial, Sans-serif">from the Noun Project</text></svg>