<svg xmlns="http://www.w3.org/2000/svg" version="1.1" viewBox="-5.0 -10.0 110.0 135.0">
 <path d="m70.172 41.562c-7.3594-17.859-33.172-17.781-40.406 0.14062-6.0625 14.062 5.0156 30.438 20.312 30.172 15.203 0.28125 26.281-16.297 20.094-30.312zm-12.938 25.734c-4.5859 1.918-9.75 1.9375-14.352 0.050781-4.6016-1.8867-8.2617-5.5234-10.184-10.113-1.918-4.5859-1.9336-9.75-0.046875-14.352 1.8867-4.6016 5.5234-8.2617 10.113-10.18 4.5859-1.9219 9.75-1.9375 14.348-0.050781 4.6016 1.8867 8.2656 5.5234 10.184 10.113 1.918 4.5859 1.9375 9.75 0.050781 14.348-1.8906 4.6016-5.5273 8.2656-10.113 10.184z"/>
 <path d="m91.969 63.172c-0.95312-2.2812-2.3516-4.3516-4.1094-6.0938 2.625-1.5625 5.8906-3.5156 5.8906-6.9219 0.03125-1.4609-0.53125-2.8711-1.5625-3.9062-1.3281-1.3164-2.8438-2.4297-4.5-3.2969l0.1875-0.17188c2.4688-2.7188 5.5625-6.25 4.1406-10.125s-6.5781-4.2344-10.203-4.4219c1.5625-4.4219 1.3281-10.438-4.6094-10.688-1.875 0.003906-3.7383 0.28906-5.5312 0.84375v-0.39062c0-4.9531-2.0625-12.297-8.4688-9.9688-2.2812 0.95312-4.3516 2.3516-6.0938 4.1094-0.83594-1.543-1.8867-2.9609-3.125-4.2031-4.4219-4.2344-8.9844 0.15625-11.109 4.4062-7.8125-8.0156-14.578-5.4062-14.688 5.8906-2.9688-0.8125-6.6094-1.7031-9.0625 0.71875s-1.5625 6.4062-0.78125 9.375c-2.4922-0.035156-4.9688 0.42578-7.2812 1.3594-6.25 2.7812-2.5312 9.8125 1.0781 13.25-8.0625 4.0781-7.6719 10.094 0.20312 14.156-1.8086 1.7227-3.2539 3.7891-4.25 6.0781-2.4531 6.4688 5.1094 8.7031 10.141 8.6094-2.8438 8.5781 1.75 12.5 10.141 9.8281-0.058594 2.5078 0.39062 4.9961 1.3125 7.3281 2.7656 6.25 9.8125 2.5312 13.25-1.0781 2.0312 4.1719 6.4375 8.3281 10.812 4.3281 1.3164-1.3281 2.4297-2.8438 3.2969-4.5l0.17188 0.1875c2.7188 2.4688 6.25 5.5625 10.125 4.1406s4.2344-6.5781 4.4219-10.203c1.6641 0.51953 3.3945 0.80469 5.1406 0.84375 1.4648 0.03125 2.8789-0.53125 3.9219-1.5586s1.6289-2.4297 1.625-3.8945c-0.003906-1.875-0.28906-3.7383-0.84375-5.5312h0.39062c4.9531 0.046875 12.297-2.0938 9.9688-8.5zm-1.3438-13.047c-0.003906 0.625-0.26562 1.2227-0.71875 1.6562-3.3047 3.1445-7.7734 4.7656-12.328 4.4688 0.91406-4.0625 0.91406-8.2812 0-12.344 4.6055-0.26953 9.1055 1.4336 12.375 4.6875 0.40625 0.41016 0.64844 0.95312 0.67188 1.5312zm-28.594 21.984c-5.9961 3.2656-13.059 3.9531-19.57 1.9102-6.5117-2.0391-11.918-6.6406-14.973-12.742-3.0586-6.1055-3.5039-13.188-1.2422-19.625 2.2656-6.4414 7.0469-11.684 13.25-14.527 6.207-2.8477 13.301-3.0508 19.656-0.57031 6.3594 2.4844 11.434 7.4453 14.066 13.742 2.3789 5.75 2.5547 12.176 0.49219 18.047-2.0664 5.8711-6.2227 10.77-11.68 13.766zm25.859-39.531c3.6875 2.1094-1.4375 7.2969-3.4531 9.0156-2.5312-0.75-5.1758-1.0508-7.8125-0.89062-0.32812-1.0352-0.74609-2.0391-1.25-3l1.5625-1.5625c1.3594-1.3828 2.5039-2.9609 3.3906-4.6875 2.5742-0.24219 5.168 0.14453 7.5625 1.125zm-10.719-11.906c3.9531 0.45312 1.9062 5.7656 1.0781 8.1406-0.8125 1.8867-1.9727 3.6055-3.4219 5.0625l-0.96875 0.98438c-2.2227-3.5195-5.1992-6.4961-8.7188-8.7188 3.0547-3.4453 7.4258-5.4336 12.031-5.4688zm-12.906-9.7344c4.2656-1.5625 4.375 6.125 4.1406 8.7344-2.3086 1.2539-4.3789 2.8984-6.125 4.8594-0.94531-0.45312-1.918-0.85547-2.9062-1.2031v-2.2969c-0.003906-1.9258-0.30469-3.8398-0.89062-5.6719 1.5547-1.9062 3.5352-3.4219 5.7812-4.4219zm-15.828-0.89062c3.125-2.5312 5.4688 2.8281 6.5469 5.0938 0.94141 2.3086 1.375 4.793 1.2656 7.2812-4.0625-0.91406-8.2812-0.91406-12.344 0-0.32031-4.582 1.3281-9.082 4.5312-12.375zm-15.891 2.1562c1.9844-3.8906 7.3281 1.3281 9.0469 3.3438-0.75 2.5312-1.0508 5.1758-0.89062 7.8125-1.0352 0.32812-2.0391 0.74609-3 1.25l-1.5625-1.5625c-1.3828-1.3633-2.9648-2.5117-4.6875-3.4062-0.23438-2.5312 0.14062-5.082 1.0938-7.4375zm-11.188 8.9844c0.44141-0.44922 1.0547-0.69531 1.6875-0.67188 4.5469 0.15625 8.8242 2.1914 11.812 5.625-3.5195 2.2227-6.4961 5.1992-8.7188 8.7188-3.4453-3.0547-5.4336-7.4258-5.4688-12.031 0-0.61719 0.25-1.207 0.6875-1.6406zm-10.422 14.406c-1.3281-4.2031 6.25-4.1719 8.7969-3.9844 1.2539 2.3008 2.8906 4.3672 4.8438 6.1094-0.46484 0.97266-0.87891 1.9688-1.2344 2.9844h-2.3125c-1.9258 0.003906-3.8398 0.30469-5.6719 0.89062-1.9414-1.6094-3.4609-3.668-4.4219-6zm-1.5625 14.281c0.003906-0.625 0.26562-1.2227 0.71875-1.6562 3.3203-3.1133 7.7852-4.707 12.328-4.3906-0.91406 4.0625-0.91406 8.2812 0 12.344-4.6055 0.28125-9.1094-1.4258-12.375-4.6875-0.42578-0.42969-0.66797-1.0039-0.67188-1.6094zm2.7344 17.547c-3.6875-2.1094 1.4375-7.2812 3.4375-9.0156 2.5312 0.75 5.1758 1.0508 7.8125 0.89062 0.33984 1.0312 0.75391 2.0391 1.2344 3.0156l-1.5625 1.5625c-1.3633 1.3828-2.5117 2.9648-3.4062 4.6875-2.5586 0.23047-5.1406-0.16016-7.5156-1.1406zm10.719 11.906c-3.9688-0.42188-1.875-5.8125-1.0469-8.2344 1.0156-2.2617 2.4961-4.2852 4.3438-5.9375 2.2344 3.5117 5.2188 6.4883 8.7344 8.7188-3.0508 3.4492-7.4258 5.4297-12.031 5.4531zm12.906 9.7344c-4.2656 1.5625-4.375-6.125-4.1406-8.7344 2.3047-1.2461 4.3711-2.8867 6.1094-4.8438 0.97656 0.46484 1.9766 0.87891 3 1.2344v2.2812c0 1.9258 0.30078 3.8398 0.89062 5.6719-1.582 1.9062-3.5859 3.4102-5.8594 4.3906zm15.781 0.92188c-3.125 2.5-5.4375-2.8281-6.5781-5.1562-0.87109-2.2969-1.25-4.75-1.1094-7.2031 4.0625 0.92969 8.2812 0.92969 12.344 0 0.27734 4.5781-1.3984 9.0547-4.6094 12.328zm15.938-2.1562c-1.9844 3.8906-7.3438-1.3438-9.0469-3.3594 0.75-2.5312 1.0508-5.1758 0.89062-7.8125 1.0352-0.32812 2.0391-0.74609 3-1.25l1.5625 1.5625c1.3828 1.3594 2.9609 2.5039 4.6875 3.3906 0.23828 2.5312-0.13672 5.082-1.0938 7.4375zm11.188-8.9844c-0.45312 0.4375-1.0586 0.67578-1.6875 0.67188-4.5469-0.15234-8.8281-2.1914-11.812-5.625 3.5195-2.2227 6.4961-5.1992 8.7188-8.7188 3.4531 3.0469 5.4453 7.4258 5.4688 12.031-0.007813 0.60547-0.25781 1.1836-0.6875 1.6094zm10.422-12.656c-0.25 0.5625-0.71094 1.0078-1.2812 1.2344-2.3945 0.91016-4.9688 1.2422-7.5156 0.96875-0.87891-1.7305-2.0234-3.3125-3.3906-4.6875l-1.4531-1.4688c0.46875-0.92969 0.88281-1.8828 1.25-2.8594 2.6875 0.17188 5.3828-0.13281 7.9688-0.89062 1.9062 1.5547 3.4219 3.5352 4.4219 5.7812 0.26562 0.61328 0.26562 1.3086 0 1.9219z"/>
 <path d="m50 35.828c-0.86328 0-1.5625 0.69922-1.5625 1.5625s0.69922 1.5625 1.5625 1.5625 1.5625-0.69922 1.5625-1.5625-0.69922-1.5625-1.5625-1.5625z"/>
 <path d="m50 41.766c-0.86328 0-1.5625 0.69922-1.5625 1.5625s0.69922 1.5625 1.5625 1.5625 1.5625-0.69922 1.5625-1.5625-0.69922-1.5625-1.5625-1.5625z"/>
 <path d="m50 48.438c-0.86328 0-1.5625 0.69922-1.5625 1.5625s0.69922 1.5625 1.5625 1.5625 1.5625-0.69922 1.5625-1.5625-0.69922-1.5625-1.5625-1.5625z"/>
 <path d="m50 54.688c-0.86328 0-1.5625 0.69922-1.5625 1.5625s0.69922 1.5625 1.5625 1.5625 1.5625-0.69922 1.5625-1.5625-0.69922-1.5625-1.5625-1.5625z"/>
 <path d="m43.75 48.438c-0.86328 0-1.5625 0.69922-1.5625 1.5625s0.69922 1.5625 1.5625 1.5625 1.5625-0.69922 1.5625-1.5625-0.69922-1.5625-1.5625-1.5625z"/>
 <path d="m50 61.047c-0.86328 0-1.5625 0.69922-1.5625 1.5625s0.69922 1.5625 1.5625 1.5625 1.5625-0.69922 1.5625-1.5625-0.69922-1.5625-1.5625-1.5625z"/>
 <path d="m38.125 48.438c-0.86328 0-1.5625 0.69922-1.5625 1.5625s0.69922 1.5625 1.5625 1.5625 1.5625-0.69922 1.5625-1.5625-0.69922-1.5625-1.5625-1.5625z"/>
 <path d="m61.797 48.438c-0.86328 0-1.5625 0.69922-1.5625 1.5625s0.69922 1.5625 1.5625 1.5625 1.5625-0.69922 1.5625-1.5625-0.69922-1.5625-1.5625-1.5625z"/>
 <path d="m56.25 48.438c-0.86328 0-1.5625 0.69922-1.5625 1.5625s0.69922 1.5625 1.5625 1.5625 1.5625-0.69922 1.5625-1.5625-0.69922-1.5625-1.5625-1.5625z"/>
 <path d="m43.75 41.797c-0.86328 0-1.5625 0.69922-1.5625 1.5625s0.69922 1.5625 1.5625 1.5625 1.5625-0.69922 1.5625-1.5625-0.69922-1.5625-1.5625-1.5625z"/>
 <path d="m38.125 41.797c-0.86328 0-1.5625 0.69922-1.5625 1.5625s0.69922 1.5625 1.5625 1.5625 1.5625-0.69922 1.5625-1.5625-0.69922-1.5625-1.5625-1.5625z"/>
 <path d="m43.75 35.938c-0.86328 0-1.5625 0.69922-1.5625 1.5625s0.69922 1.5625 1.5625 1.5625 1.5625-0.69922 1.5625-1.5625-0.69922-1.5625-1.5625-1.5625z"/>
 <path d="m56.25 41.797c-0.86328 0-1.5625 0.69922-1.5625 1.5625s0.69922 1.5625 1.5625 1.5625 1.5625-0.69922 1.5625-1.5625-0.69922-1.5625-1.5625-1.5625z"/>
 <path d="m61.797 41.797c-0.86328 0-1.5625 0.69922-1.5625 1.5625s0.69922 1.5625 1.5625 1.5625 1.5625-0.69922 1.5625-1.5625-0.69922-1.5625-1.5625-1.5625z"/>
 <path d="m56.25 35.938c-0.86328 0-1.5625 0.69922-1.5625 1.5625s0.69922 1.5625 1.5625 1.5625 1.5625-0.69922 1.5625-1.5625-0.69922-1.5625-1.5625-1.5625z"/>
 <path d="m43.75 54.688c-0.86328 0-1.5625 0.69922-1.5625 1.5625s0.69922 1.5625 1.5625 1.5625 1.5625-0.69922 1.5625-1.5625-0.69922-1.5625-1.5625-1.5625z"/>
 <path d="m43.75 61.047c-0.86328 0-1.5625 0.69922-1.5625 1.5625s0.69922 1.5625 1.5625 1.5625 1.5625-0.69922 1.5625-1.5625-0.69922-1.5625-1.5625-1.5625z"/>
 <path d="m38.125 54.688c-0.86328 0-1.5625 0.69922-1.5625 1.5625s0.69922 1.5625 1.5625 1.5625 1.5625-0.69922 1.5625-1.5625-0.69922-1.5625-1.5625-1.5625z"/>
 <path d="m56.25 54.688c-0.86328 0-1.5625 0.69922-1.5625 1.5625s0.69922 1.5625 1.5625 1.5625 1.5625-0.69922 1.5625-1.5625-0.69922-1.5625-1.5625-1.5625z"/>
 <path d="m56.25 60.938c-0.86328 0-1.5625 0.69922-1.5625 1.5625s0.69922 1.5625 1.5625 1.5625 1.5625-0.69922 1.5625-1.5625-0.69922-1.5625-1.5625-1.5625z"/>
 <path d="m61.797 54.688c-0.86328 0-1.5625 0.69922-1.5625 1.5625s0.69922 1.5625 1.5625 1.5625 1.5625-0.69922 1.5625-1.5625-0.69922-1.5625-1.5625-1.5625z"/>
<!-- <text x="0.0" y="117.5" font-size="5.0" font-weight="bold" font-family="Arbeit Regular, Helvetica, Arial-Unicode, Arial, Sans-serif" fill="#000000">Created by ajat sudrajat</text><text x="0.0" y="122.5" font-size="5.0" font-weight="bold" font-family="Arbeit Regular, Helvetica, Arial-Unicode, Arial, Sans-serif" fill="#000000">from Noun Project</text> --></svg>